<?xml version="1.0" standalone="no"?>
<!DOCTYPE svg PUBLIC "-//W3C//DTD SVG 20010904//EN"
 "http://www.w3.org/TR/2001/REC-SVG-20010904/DTD/svg10.dtd">
<svg version="1.0" xmlns="http://www.w3.org/2000/svg"
 width="500.000000pt" height="500.000000pt" viewBox="0 0 500.000000 500.000000"
 preserveAspectRatio="xMidYMid meet">

<g transform="translate(0.000000,500.000000) scale(0.100000,-0.100000)"
fill="#000000" stroke="none">
<path d="M2170 4974 c-542 -74 -1048 -324 -1434 -708 -194 -194 -339 -396
-465 -646 -116 -232 -179 -424 -232 -700 -30 -161 -38 -549 -15 -730 61 -467
245 -899 534 -1260 218 -271 513 -506 836 -665 244 -120 472 -192 726 -231
142 -22 596 -25 730 -5 343 50 702 182 986 363 648 414 1055 1068 1144 1838
18 158 8 533 -18 680 -48 267 -110 457 -226 695 -365 747 -1086 1261 -1919
1370 -149 19 -501 19 -647 -1z m780 -795 c410 -54 709 -307 833 -704 22 -71
61 -265 54 -271 -4 -3 -381 -7 -552 -6 l-161 2 -23 103 c-70 313 -215 483
-463 543 -66 16 -67 16 -153 -11 -276 -88 -461 -338 -530 -715 -23 -127 -33
-637 -15 -807 44 -429 236 -738 517 -832 75 -25 115 -26 196 -5 234 60 374
222 443 514 l29 120 357 0 c197 0 358 -2 358 -4 0 -3 -9 -54 -21 -113 -85
-442 -359 -738 -773 -832 -134 -31 -239 -39 -496 -40 -359 0 -476 18 -656 103
-119 56 -197 110 -281 194 -206 203 -327 457 -378 792 -22 145 -31 586 -16
759 47 527 264 901 638 1098 125 65 264 106 418 122 99 10 573 3 675 -10z"/>
</g>
</svg>
